<svg xmlns="http://www.w3.org/2000/svg" xmlns:xlink="http://www.w3.org/1999/xlink" width="180" zoomAndPan="magnify" viewBox="0 0 135 74.999997" height="100" preserveAspectRatio="xMidYMid meet" version="1.0"><defs><clipPath id="eda37d038b"><path d="M 47.203125 48 L 79 48 L 79 72 L 47.203125 72 Z M 47.203125 48 " clip-rule="nonzero"/></clipPath><clipPath id="09ff414cf3"><path d="M 78 4.171875 L 92.953125 4.171875 L 92.953125 18 L 78 18 Z M 78 4.171875 " clip-rule="nonzero"/></clipPath><clipPath id="e4594c1f60"><path d="M 46 3 L 64 3 L 64 17 L 46 17 Z M 46 3 " clip-rule="nonzero"/></clipPath><clipPath id="6a0cc66528"><path d="M 44.84375 8.8125 L 61.46875 0.144531 L 67.363281 11.453125 L 50.738281 20.121094 Z M 44.84375 8.8125 " clip-rule="nonzero"/></clipPath><clipPath id="9dcd424fde"><path d="M 44.84375 8.8125 L 61.46875 0.144531 L 67.363281 11.453125 L 50.738281 20.121094 Z M 44.84375 8.8125 " clip-rule="nonzero"/></clipPath></defs><path fill="#234777" d="M 74.640625 45.375 C 73.097656 43.117188 71.382812 41.101562 69.902344 39.433594 C 69.796875 39.480469 69.675781 39.527344 69.570312 39.574219 C 65.4375 41.398438 62.632812 43.648438 62.394531 48.679688 C 62.359375 49.496094 62.609375 50.300781 63.117188 50.929688 C 66.292969 54.921875 68.480469 57.855469 69.144531 60.261719 C 72.367188 57.609375 74.414062 53.464844 75.242188 47.945312 C 75.359375 47.058594 75.148438 46.132812 74.640625 45.375 Z M 74.640625 45.375 " fill-opacity="1" fill-rule="nonzero"/><path fill="#234777" d="M 67.675781 18.769531 C 67.902344 15.089844 65.09375 11.914062 61.402344 11.703125 C 57.707031 11.488281 54.546875 14.285156 54.332031 17.976562 C 54.105469 21.660156 56.914062 24.832031 60.609375 25.046875 C 64.277344 25.261719 67.453125 22.453125 67.675781 18.769531 Z M 67.675781 18.769531 " fill-opacity="1" fill-rule="nonzero"/><path fill="#c8b663" d="M 67.972656 27.082031 C 59.152344 28.671875 52.804688 37.964844 59.851562 46.855469 C 60.335938 47.472656 60.808594 48.066406 61.269531 48.632812 C 61.554688 42.890625 64.917969 40.414062 69.109375 38.558594 C 72.910156 36.875 77.410156 35.703125 80.925781 33.039062 C 88.230469 27.507812 85.898438 18.820312 85.898438 18.820312 C 82.277344 25.296875 75.054688 25.804688 67.972656 27.082031 Z M 67.972656 27.082031 " fill-opacity="1" fill-rule="nonzero"/><g clip-path="url(#eda37d038b)"><path fill="#c8b663" d="M 69.347656 61.527344 C 62.894531 66.40625 53.574219 65.210938 47.203125 62.710938 C 53.359375 73.082031 70.105469 74.976562 76.699219 64.488281 C 80.308594 58.757812 79.019531 53.039062 76.332031 48.136719 C 75.347656 54.730469 72.746094 58.96875 69.347656 61.527344 Z M 69.347656 61.527344 " fill-opacity="1" fill-rule="nonzero"/></g><g clip-path="url(#09ff414cf3)"><path fill="#c8b663" d="M 92.789062 9.453125 L 87.25 9.453125 L 85.53125 4.183594 L 83.828125 9.453125 L 78.285156 9.453125 L 82.761719 12.707031 L 81.054688 17.976562 L 85.53125 14.722656 L 90.019531 17.976562 L 88.300781 12.707031 Z M 92.789062 9.453125 " fill-opacity="1" fill-rule="nonzero"/></g><g clip-path="url(#e4594c1f60)"><g clip-path="url(#6a0cc66528)"><g clip-path="url(#9dcd424fde)"><path fill="#c8b663" d="M 55.53125 8.695312 L 57.636719 6.3125 L 54.472656 6.660156 L 52.375 9.054688 Z M 60.351562 10.496094 L 59.722656 9.292969 L 49.75 10.433594 L 53.941406 5.640625 L 60.269531 4.949219 L 56.976562 8.675781 L 58.902344 8.457031 L 63.464844 3.289062 L 53.296875 4.40625 L 46.558594 12.105469 L 58.441406 10.746094 L 57.285156 12.054688 L 51.101562 12.761719 L 52.859375 16.136719 L 59.042969 15.429688 L 63.164062 10.765625 L 61.402344 7.390625 L 60.339844 8.59375 L 61.054688 9.957031 L 60.667969 9.984375 Z M 60.351562 10.496094 " fill-opacity="1" fill-rule="evenodd"/></g></g></g></svg>