<svg xmlns="http://www.w3.org/2000/svg" xmlns:xlink="http://www.w3.org/1999/xlink" width="180" zoomAndPan="magnify" viewBox="0 0 135 74.999997" height="100" preserveAspectRatio="xMidYMid meet" version="1.0"><defs><g/><clipPath id="936e010896"><path d="M 7.5 46 L 40 46 L 40 70 L 7.5 70 Z M 7.5 46 " clip-rule="nonzero"/></clipPath><clipPath id="ab50524f4e"><path d="M 38 2.085938 L 53.25 2.085938 L 53.25 16 L 38 16 Z M 38 2.085938 " clip-rule="nonzero"/></clipPath><clipPath id="61695710ea"><path d="M 11 3 L 29 3 L 29 17 L 11 17 Z M 11 3 " clip-rule="nonzero"/></clipPath><clipPath id="0a2d49e9c5"><path d="M 9.441406 8.8125 L 26.066406 0.144531 L 31.960938 11.453125 L 15.335938 20.121094 Z M 9.441406 8.8125 " clip-rule="nonzero"/></clipPath><clipPath id="d3570b6377"><path d="M 9.441406 8.8125 L 26.066406 0.144531 L 31.960938 11.453125 L 15.335938 20.121094 Z M 9.441406 8.8125 " clip-rule="nonzero"/></clipPath><clipPath id="e7f8d6ead7"><path d="M 1 0.398438 L 16 0.398438 L 16 17 L 1 17 Z M 1 0.398438 " clip-rule="nonzero"/></clipPath><clipPath id="6216e16299"><path d="M 52 19 L 62.558594 19 L 62.558594 32 L 52 32 Z M 52 19 " clip-rule="nonzero"/></clipPath><clipPath id="0065f05448"><rect x="0" width="63" y="0" height="35"/></clipPath><clipPath id="d680abda47"><path d="M 39.078125 59.875 L 77 59.875 L 77 64.882812 L 39.078125 64.882812 Z M 39.078125 59.875 " clip-rule="nonzero"/></clipPath><clipPath id="33906a692c"><path d="M 41.582031 59.875 L 74.496094 59.875 C 75.160156 59.875 75.796875 60.140625 76.265625 60.609375 C 76.734375 61.078125 76.996094 61.714844 76.996094 62.378906 C 76.996094 63.042969 76.734375 63.679688 76.265625 64.148438 C 75.796875 64.617188 75.160156 64.882812 74.496094 64.882812 L 41.582031 64.882812 C 40.917969 64.882812 40.28125 64.617188 39.8125 64.148438 C 39.339844 63.679688 39.078125 63.042969 39.078125 62.378906 C 39.078125 61.714844 39.339844 61.078125 39.8125 60.609375 C 40.28125 60.140625 40.917969 59.875 41.582031 59.875 Z M 41.582031 59.875 " clip-rule="nonzero"/></clipPath><clipPath id="43189a25b8"><path d="M 0.078125 0.875 L 38 0.875 L 38 5.882812 L 0.078125 5.882812 Z M 0.078125 0.875 " clip-rule="nonzero"/></clipPath><clipPath id="57d29eaccf"><path d="M 2.582031 0.875 L 35.496094 0.875 C 36.160156 0.875 36.796875 1.140625 37.265625 1.609375 C 37.734375 2.078125 37.996094 2.714844 37.996094 3.378906 C 37.996094 4.042969 37.734375 4.679688 37.265625 5.148438 C 36.796875 5.617188 36.160156 5.882812 35.496094 5.882812 L 2.582031 5.882812 C 1.917969 5.882812 1.28125 5.617188 0.8125 5.148438 C 0.339844 4.679688 0.078125 4.042969 0.078125 3.378906 C 0.078125 2.714844 0.339844 2.078125 0.8125 1.609375 C 1.28125 1.140625 1.917969 0.875 2.582031 0.875 Z M 2.582031 0.875 " clip-rule="nonzero"/></clipPath><clipPath id="fc2ad28ee6"><rect x="0" width="38" y="0" height="6"/></clipPath><clipPath id="9d14504918"><rect x="0" width="39" y="0" height="8"/></clipPath></defs><path fill="#234777" d="M 34.933594 43.289062 C 33.394531 41.027344 31.679688 39.015625 30.199219 37.347656 C 30.089844 37.394531 29.972656 37.441406 29.867188 37.488281 C 25.734375 39.3125 22.929688 41.5625 22.691406 46.59375 C 22.65625 47.410156 22.90625 48.214844 23.414062 48.84375 C 26.585938 52.832031 28.777344 55.769531 29.441406 58.175781 C 32.660156 55.523438 34.710938 51.378906 35.539062 45.859375 C 35.65625 44.972656 35.445312 44.046875 34.933594 43.289062 Z M 34.933594 43.289062 " fill-opacity="1" fill-rule="nonzero"/><path fill="#234777" d="M 27.972656 16.683594 C 28.195312 13.003906 25.390625 9.828125 21.695312 9.617188 C 18.003906 9.402344 14.839844 12.199219 14.628906 15.890625 C 14.402344 19.574219 17.210938 22.746094 20.902344 22.960938 C 24.574219 23.171875 27.746094 20.367188 27.972656 16.683594 Z M 27.972656 16.683594 " fill-opacity="1" fill-rule="nonzero"/><path fill="#c8b663" d="M 28.269531 24.996094 C 19.445312 26.582031 13.101562 35.878906 20.144531 44.769531 C 20.632812 45.386719 21.105469 45.976562 21.566406 46.546875 C 21.851562 40.804688 25.214844 38.328125 29.40625 36.46875 C 33.207031 34.789062 37.707031 33.617188 41.222656 30.953125 C 48.527344 25.421875 46.195312 16.730469 46.195312 16.730469 C 42.570312 23.210938 35.347656 23.71875 28.269531 24.996094 Z M 28.269531 24.996094 " fill-opacity="1" fill-rule="nonzero"/><g clip-path="url(#936e010896)"><path fill="#c8b663" d="M 29.640625 59.441406 C 23.1875 64.320312 13.871094 63.125 7.5 60.625 C 13.65625 70.996094 30.398438 72.890625 36.996094 62.402344 C 40.605469 56.671875 39.316406 50.953125 36.628906 46.050781 C 35.644531 52.644531 33.039062 56.882812 29.640625 59.441406 Z M 29.640625 59.441406 " fill-opacity="1" fill-rule="nonzero"/></g><g clip-path="url(#ab50524f4e)"><path fill="#c8b663" d="M 53.085938 7.367188 L 47.542969 7.367188 L 45.828125 2.097656 L 44.121094 7.367188 L 38.582031 7.367188 L 43.058594 10.621094 L 41.351562 15.890625 L 45.828125 12.636719 L 50.316406 15.890625 L 48.597656 10.621094 Z M 53.085938 7.367188 " fill-opacity="1" fill-rule="nonzero"/></g><g clip-path="url(#61695710ea)"><g clip-path="url(#0a2d49e9c5)"><g clip-path="url(#d3570b6377)"><path fill="#c8b663" d="M 20.132812 8.695312 L 22.234375 6.3125 L 19.070312 6.660156 L 16.972656 9.054688 Z M 24.949219 10.496094 L 24.324219 9.292969 L 14.347656 10.433594 L 18.539062 5.640625 L 24.867188 4.949219 L 21.574219 8.675781 L 23.5 8.457031 L 28.0625 3.289062 L 17.894531 4.40625 L 11.15625 12.105469 L 23.039062 10.746094 L 21.882812 12.054688 L 15.699219 12.761719 L 17.460938 16.136719 L 23.644531 15.429688 L 27.761719 10.765625 L 26.003906 7.390625 L 24.941406 8.59375 L 25.652344 9.957031 L 25.265625 9.984375 Z M 24.949219 10.496094 " fill-opacity="1" fill-rule="evenodd"/></g></g></g><g transform="matrix(1, 0, 0, 1, 38, 26)"><g clip-path="url(#0065f05448)"><g clip-path="url(#e7f8d6ead7)"><g fill="#ffffff" fill-opacity="1"><g transform="translate(0.542844, 15.767666)"><g><path d="M 6.148438 -5.570312 L 6.148438 0.707031 L 0.800781 0.707031 L 0.800781 -15.117188 L 5.683594 -15.117188 L 9.273438 -9.285156 C 9.527344 -8.886719 9.765625 -8.484375 9.984375 -8.074219 C 10.199219 -7.667969 10.394531 -7.269531 10.566406 -6.871094 L 9.914062 -6.589844 L 9.742188 -7.277344 L 9.820312 -7.296875 L 9.992188 -6.609375 L 9.285156 -6.566406 C 9.257812 -6.957031 9.234375 -7.34375 9.21875 -7.726562 C 9.199219 -8.117188 9.1875 -8.503906 9.1875 -8.894531 L 9.1875 -15.117188 L 14.53125 -15.117188 L 14.53125 0.707031 L 9.648438 0.707031 L 6.0625 -5.183594 C 5.816406 -5.597656 5.582031 -6.003906 5.367188 -6.402344 C 5.144531 -6.804688 4.945312 -7.191406 4.761719 -7.566406 L 5.402344 -7.875 L 5.574219 -7.1875 L 5.496094 -7.167969 L 5.324219 -7.855469 L 6.03125 -7.925781 C 6.070312 -7.539062 6.097656 -7.144531 6.117188 -6.75 C 6.136719 -6.351562 6.148438 -5.960938 6.148438 -5.570312 Z M 4.730469 -5.570312 C 4.730469 -5.9375 4.722656 -6.308594 4.703125 -6.679688 C 4.683594 -7.050781 4.65625 -7.421875 4.621094 -7.785156 L 4.558594 -8.394531 L 5.789062 -8.703125 L 6.039062 -8.183594 C 6.210938 -7.828125 6.398438 -7.460938 6.609375 -7.082031 C 6.816406 -6.699219 7.039062 -6.3125 7.273438 -5.921875 L 10.652344 -0.367188 L 10.046875 0 L 10.046875 -0.707031 L 13.824219 -0.707031 L 13.824219 0 L 13.117188 0 L 13.117188 -14.410156 L 13.824219 -14.410156 L 13.824219 -13.703125 L 9.894531 -13.703125 L 9.894531 -14.410156 L 10.605469 -14.410156 L 10.605469 -8.894531 C 10.605469 -8.53125 10.613281 -8.164062 10.632812 -7.796875 C 10.652344 -7.421875 10.671875 -7.042969 10.699219 -6.65625 L 10.734375 -6.066406 L 9.503906 -5.757812 L 9.265625 -6.308594 C 9.109375 -6.671875 8.933594 -7.035156 8.734375 -7.410156 C 8.535156 -7.785156 8.3125 -8.160156 8.066406 -8.542969 L 4.683594 -14.039062 L 5.289062 -14.410156 L 5.289062 -13.703125 L 1.511719 -13.703125 L 1.511719 -14.410156 L 2.21875 -14.410156 L 2.21875 0 L 1.511719 0 L 1.511719 -0.707031 L 5.4375 -0.707031 L 5.4375 0 L 4.730469 0 Z M 4.730469 -5.570312 "/></g></g></g></g><g fill="#ffffff" fill-opacity="1"><g transform="translate(15.877773, 15.767666)"><g><path d="M 12.019531 -5.136719 C 12.019531 -3.292969 11.480469 -1.828125 10.398438 -0.738281 C 9.316406 0.351562 7.859375 0.898438 6.023438 0.898438 C 4.191406 0.898438 2.734375 0.351562 1.660156 -0.738281 C 0.585938 -1.828125 0.046875 -3.292969 0.046875 -5.136719 C 0.046875 -6.980469 0.582031 -8.449219 1.65625 -9.542969 C 2.734375 -10.640625 4.191406 -11.191406 6.023438 -11.191406 C 7.859375 -11.191406 9.316406 -10.640625 10.402344 -9.542969 C 11.480469 -8.449219 12.019531 -6.980469 12.019531 -5.136719 Z M 10.605469 -5.136719 C 10.605469 -6.59375 10.199219 -7.730469 9.390625 -8.550781 C 8.585938 -9.367188 7.464844 -9.773438 6.023438 -9.773438 C 4.585938 -9.773438 3.46875 -9.367188 2.667969 -8.550781 C 1.863281 -7.730469 1.464844 -6.59375 1.464844 -5.136719 C 1.464844 -3.679688 1.863281 -2.546875 2.667969 -1.734375 C 3.464844 -0.925781 4.585938 -0.519531 6.023438 -0.519531 C 7.464844 -0.519531 8.589844 -0.925781 9.394531 -1.734375 C 10.199219 -2.546875 10.605469 -3.683594 10.605469 -5.136719 Z M 6.808594 -5.136719 C 6.808594 -5.835938 6.71875 -6.335938 6.542969 -6.632812 C 6.484375 -6.726562 6.417969 -6.796875 6.34375 -6.835938 C 6.261719 -6.878906 6.15625 -6.902344 6.023438 -6.902344 C 5.902344 -6.902344 5.800781 -6.882812 5.722656 -6.839844 C 5.652344 -6.796875 5.585938 -6.730469 5.527344 -6.632812 C 5.347656 -6.335938 5.261719 -5.835938 5.261719 -5.136719 C 5.261719 -4.4375 5.347656 -3.945312 5.523438 -3.65625 C 5.582031 -3.5625 5.648438 -3.496094 5.71875 -3.453125 C 5.796875 -3.410156 5.898438 -3.390625 6.023438 -3.390625 C 6.15625 -3.390625 6.265625 -3.414062 6.347656 -3.457031 C 6.421875 -3.496094 6.488281 -3.5625 6.542969 -3.65625 C 6.71875 -3.945312 6.808594 -4.4375 6.808594 -5.136719 Z M 8.226562 -5.136719 C 8.226562 -4.171875 8.066406 -3.433594 7.753906 -2.917969 C 7.5625 -2.605469 7.320312 -2.371094 7.019531 -2.210938 C 6.726562 -2.050781 6.394531 -1.972656 6.023438 -1.972656 C 5.660156 -1.972656 5.332031 -2.054688 5.039062 -2.210938 C 4.746094 -2.371094 4.503906 -2.609375 4.316406 -2.917969 C 4 -3.433594 3.84375 -4.171875 3.84375 -5.136719 C 3.84375 -6.097656 4 -6.839844 4.3125 -7.363281 C 4.5 -7.675781 4.742188 -7.914062 5.035156 -8.078125 C 5.328125 -8.238281 5.65625 -8.320312 6.023438 -8.320312 C 6.398438 -8.320312 6.730469 -8.238281 7.023438 -8.078125 C 7.324219 -7.914062 7.566406 -7.675781 7.753906 -7.363281 C 8.070312 -6.839844 8.226562 -6.097656 8.226562 -5.136719 Z M 8.226562 -5.136719 "/></g></g></g><g fill="#ffffff" fill-opacity="1"><g transform="translate(27.945531, 15.767666)"><g><path d="M 11.863281 -10.042969 L 7.777344 0.707031 L 3.402344 0.707031 L -1.023438 -11 L 4.597656 -11 L 5.882812 -5.816406 C 5.996094 -5.351562 6.085938 -4.953125 6.152344 -4.621094 C 6.222656 -4.273438 6.261719 -3.996094 6.277344 -3.789062 L 5.570312 -3.738281 L 5.570312 -4.449219 L 5.628906 -4.449219 L 5.628906 -3.738281 L 4.921875 -3.789062 C 4.9375 -3.996094 4.976562 -4.273438 5.046875 -4.621094 C 5.113281 -4.953125 5.203125 -5.355469 5.320312 -5.820312 L 6.582031 -11 L 12.226562 -11 Z M 10.539062 -10.542969 L 11.199219 -10.292969 L 11.199219 -9.585938 L 7.140625 -9.585938 L 7.140625 -10.292969 L 7.828125 -10.125 L 6.691406 -5.476562 C 6.582031 -5.035156 6.496094 -4.660156 6.4375 -4.347656 C 6.378906 -4.054688 6.34375 -3.835938 6.335938 -3.6875 L 6.289062 -3.03125 L 4.910156 -3.03125 L 4.863281 -3.6875 C 4.855469 -3.835938 4.820312 -4.054688 4.761719 -4.347656 C 4.703125 -4.660156 4.617188 -5.035156 4.507812 -5.476562 L 3.355469 -10.121094 L 4.042969 -10.292969 L 4.042969 -9.585938 L 0 -9.585938 L 0 -10.292969 L 0.664062 -10.542969 L 4.554688 -0.25 L 3.890625 0 L 3.890625 -0.707031 L 7.289062 -0.707031 L 7.289062 0 L 6.628906 -0.25 Z M 10.539062 -10.542969 "/></g></g></g><g fill="#ffffff" fill-opacity="1"><g transform="translate(39.144559, 15.767666)"><g><path d="M 7.335938 -0.5 C 6.820312 0.0195312 6.304688 0.382812 5.796875 0.597656 C 5.289062 0.808594 4.710938 0.917969 4.058594 0.917969 C 2.886719 0.917969 1.953125 0.550781 1.261719 -0.183594 C 0.578125 -0.90625 0.234375 -1.851562 0.234375 -3.023438 C 0.234375 -3.675781 0.359375 -4.25 0.609375 -4.753906 C 0.867188 -5.269531 1.246094 -5.695312 1.753906 -6.03125 C 2.671875 -6.636719 4.019531 -6.941406 5.796875 -6.941406 L 6.460938 -6.941406 L 6.460938 -6.230469 L 5.789062 -6.457031 C 5.777344 -6.421875 5.769531 -6.386719 5.769531 -6.355469 L 5.769531 -6.648438 C 5.769531 -6.691406 5.765625 -6.722656 5.757812 -6.738281 C 5.75 -6.75 5.734375 -6.761719 5.710938 -6.773438 C 5.53125 -6.871094 5.210938 -6.921875 4.742188 -6.921875 C 4.292969 -6.921875 3.878906 -6.886719 3.496094 -6.8125 C 3.105469 -6.738281 2.640625 -6.597656 2.097656 -6.398438 L 1.140625 -6.046875 L 1.140625 -10.558594 L 1.652344 -10.707031 C 2.203125 -10.871094 2.785156 -10.992188 3.402344 -11.070312 C 4.011719 -11.148438 4.652344 -11.191406 5.324219 -11.191406 C 7.285156 -11.191406 8.707031 -10.742188 9.597656 -9.847656 C 10.484375 -8.953125 10.925781 -7.554688 10.925781 -5.648438 L 10.925781 0.707031 L 6.804688 0.707031 L 6.25 -0.726562 L 6.914062 -0.980469 L 6.742188 -0.296875 L 6.664062 -0.3125 L 6.835938 -1 Z M 6.621094 -1.785156 L 7.441406 -1.578125 L 7.949219 -0.253906 L 7.289062 0 L 7.289062 -0.707031 L 10.21875 -0.707031 L 10.21875 0 L 9.507812 0 L 9.507812 -5.648438 C 9.507812 -7.164062 9.203125 -8.234375 8.589844 -8.851562 C 7.980469 -9.464844 6.890625 -9.773438 5.324219 -9.773438 C 4.714844 -9.773438 4.132812 -9.738281 3.585938 -9.667969 C 3.042969 -9.59375 2.53125 -9.488281 2.050781 -9.347656 L 1.851562 -10.027344 L 2.558594 -10.027344 L 2.558594 -7.0625 L 1.851562 -7.0625 L 1.605469 -7.726562 C 2.222656 -7.957031 2.761719 -8.113281 3.230469 -8.203125 C 3.699219 -8.292969 4.203125 -8.339844 4.742188 -8.339844 C 5.453125 -8.339844 6.007812 -8.230469 6.398438 -8.011719 C 6.652344 -7.871094 6.851562 -7.679688 6.988281 -7.441406 C 7.121094 -7.207031 7.1875 -6.941406 7.1875 -6.648438 L 7.1875 -6.355469 C 7.1875 -6.234375 7.167969 -6.117188 7.132812 -6.007812 L 6.96875 -5.523438 L 5.796875 -5.523438 C 4.304688 -5.523438 3.214844 -5.300781 2.535156 -4.847656 C 2.242188 -4.652344 2.023438 -4.414062 1.878906 -4.125 C 1.726562 -3.820312 1.652344 -3.453125 1.652344 -3.023438 C 1.652344 -2.226562 1.863281 -1.605469 2.289062 -1.15625 C 2.703125 -0.71875 3.292969 -0.5 4.058594 -0.5 C 4.519531 -0.5 4.917969 -0.570312 5.25 -0.710938 C 5.585938 -0.851562 5.949219 -1.113281 6.335938 -1.5 Z M 6.042969 -3.597656 C 5.835938 -3.597656 5.664062 -3.582031 5.527344 -3.550781 C 5.433594 -3.53125 5.367188 -3.507812 5.328125 -3.480469 C 5.324219 -3.476562 5.320312 -3.46875 5.3125 -3.457031 C 5.289062 -3.402344 5.277344 -3.320312 5.277344 -3.210938 C 5.277344 -3.09375 5.292969 -3.019531 5.316406 -2.992188 C 5.328125 -2.980469 5.363281 -2.972656 5.421875 -2.972656 C 5.589844 -2.972656 5.757812 -3.015625 5.929688 -3.101562 C 6.070312 -3.167969 6.15625 -3.230469 6.183594 -3.277344 L 6.800781 -2.925781 L 6.089844 -2.925781 L 6.089844 -4.304688 L 6.800781 -4.304688 L 6.800781 -3.597656 Z M 6.042969 -5.015625 L 7.507812 -5.015625 L 7.507812 -2.738281 L 7.414062 -2.574219 C 7.242188 -2.273438 6.953125 -2.023438 6.550781 -1.828125 C 6.183594 -1.648438 5.804688 -1.558594 5.421875 -1.558594 C 4.949219 -1.558594 4.566406 -1.714844 4.277344 -2.03125 C 4 -2.332031 3.863281 -2.722656 3.863281 -3.210938 C 3.863281 -3.859375 4.078125 -4.335938 4.511719 -4.640625 C 4.867188 -4.890625 5.378906 -5.015625 6.042969 -5.015625 Z M 6.042969 -5.015625 "/></g></g></g><g fill="#ffffff" fill-opacity="1"><g transform="translate(0.542844, 30.287244)"><g><path d="M 11.738281 -3.285156 L 11.738281 0.707031 L 0.800781 0.707031 L 0.800781 -15.117188 L 6.335938 -15.117188 L 6.335938 -3.285156 L 5.628906 -3.285156 L 5.628906 -3.996094 L 11.738281 -3.996094 Z M 10.320312 -3.285156 L 11.03125 -3.285156 L 11.03125 -2.578125 L 4.917969 -2.578125 L 4.917969 -14.410156 L 5.628906 -14.410156 L 5.628906 -13.703125 L 1.511719 -13.703125 L 1.511719 -14.410156 L 2.21875 -14.410156 L 2.21875 0 L 1.511719 0 L 1.511719 -0.707031 L 11.03125 -0.707031 L 11.03125 0 L 10.320312 0 Z M 10.320312 -3.285156 "/></g></g></g><g fill="#ffffff" fill-opacity="1"><g transform="translate(12.138465, 30.287244)"><g><path d="M 10.097656 0.269531 C 9.492188 0.484375 8.875 0.648438 8.25 0.753906 C 7.625 0.863281 6.976562 0.917969 6.308594 0.917969 C 4.414062 0.917969 2.898438 0.355469 1.761719 -0.761719 C 0.617188 -1.878906 0.046875 -3.390625 0.046875 -5.289062 C 0.046875 -7.054688 0.578125 -8.480469 1.636719 -9.570312 C 2.699219 -10.664062 4.121094 -11.207031 5.890625 -11.207031 C 7.480469 -11.207031 8.730469 -10.765625 9.636719 -9.882812 C 10.546875 -8.996094 11 -7.777344 11 -6.230469 C 11 -5.847656 10.972656 -5.460938 10.917969 -5.074219 C 10.863281 -4.6875 10.785156 -4.328125 10.6875 -4.003906 L 10.535156 -3.503906 L 4.324219 -3.503906 L 4.324219 -4.210938 L 5.019531 -4.355469 C 5.09375 -3.992188 5.234375 -3.742188 5.441406 -3.601562 C 5.695312 -3.4375 6.117188 -3.351562 6.703125 -3.351562 C 7.09375 -3.351562 7.488281 -3.386719 7.886719 -3.457031 C 8.296875 -3.527344 8.882812 -3.679688 9.644531 -3.921875 L 10.566406 -4.214844 L 10.566406 0.101562 Z M 9.621094 -1.0625 L 9.859375 -0.398438 L 9.148438 -0.398438 L 9.148438 -3.25 L 9.859375 -3.25 L 10.074219 -2.574219 C 9.25 -2.3125 8.601562 -2.140625 8.128906 -2.058594 C 7.648438 -1.976562 7.171875 -1.9375 6.703125 -1.9375 C 5.832031 -1.9375 5.152344 -2.097656 4.660156 -2.421875 C 4.128906 -2.773438 3.785156 -3.324219 3.632812 -4.070312 L 3.457031 -4.917969 L 10.007812 -4.917969 L 10.007812 -4.210938 L 9.332031 -4.417969 C 9.410156 -4.671875 9.472656 -4.957031 9.515625 -5.273438 C 9.5625 -5.59375 9.585938 -5.914062 9.585938 -6.230469 C 9.585938 -7.378906 9.273438 -8.257812 8.644531 -8.871094 C 8.015625 -9.484375 7.097656 -9.792969 5.890625 -9.792969 C 4.519531 -9.792969 3.4375 -9.386719 2.652344 -8.582031 C 1.859375 -7.769531 1.464844 -6.671875 1.464844 -5.289062 C 1.464844 -3.785156 1.894531 -2.613281 2.753906 -1.769531 C 3.617188 -0.925781 4.800781 -0.5 6.308594 -0.5 C 6.898438 -0.5 7.464844 -0.546875 8.011719 -0.640625 C 8.554688 -0.734375 9.09375 -0.875 9.621094 -1.0625 Z M 6.507812 -6.78125 C 6.507812 -7.023438 6.453125 -7.203125 6.34375 -7.308594 C 6.238281 -7.414062 6.0625 -7.46875 5.816406 -7.46875 C 5.542969 -7.46875 5.339844 -7.394531 5.210938 -7.242188 C 5.050781 -7.058594 4.964844 -6.746094 4.957031 -6.3125 L 4.25 -6.328125 L 4.25 -7.035156 L 7.175781 -7.035156 L 7.175781 -6.328125 L 6.542969 -6.644531 C 6.519531 -6.59375 6.503906 -6.554688 6.5 -6.527344 C 6.503906 -6.558594 6.507812 -6.640625 6.507812 -6.78125 Z M 7.921875 -6.78125 C 7.921875 -6.589844 7.917969 -6.453125 7.910156 -6.371094 C 7.894531 -6.230469 7.859375 -6.109375 7.808594 -6.011719 L 7.613281 -5.617188 L 3.527344 -5.617188 L 3.542969 -6.339844 C 3.558594 -7.117188 3.757812 -7.722656 4.136719 -8.167969 C 4.550781 -8.644531 5.109375 -8.886719 5.816406 -8.886719 C 6.453125 -8.886719 6.964844 -8.695312 7.347656 -8.308594 C 7.730469 -7.925781 7.921875 -7.417969 7.921875 -6.78125 Z M 7.921875 -6.78125 "/></g></g></g><g fill="#ffffff" fill-opacity="1"><g transform="translate(23.186411, 30.287244)"><g><path d="M 11.863281 -10.042969 L 7.777344 0.707031 L 3.402344 0.707031 L -1.023438 -11 L 4.597656 -11 L 5.882812 -5.816406 C 5.996094 -5.351562 6.085938 -4.953125 6.152344 -4.621094 C 6.222656 -4.273438 6.261719 -3.996094 6.277344 -3.789062 L 5.570312 -3.738281 L 5.570312 -4.449219 L 5.628906 -4.449219 L 5.628906 -3.738281 L 4.921875 -3.789062 C 4.9375 -3.996094 4.976562 -4.273438 5.046875 -4.621094 C 5.113281 -4.953125 5.203125 -5.355469 5.320312 -5.820312 L 6.582031 -11 L 12.226562 -11 Z M 10.539062 -10.542969 L 11.199219 -10.292969 L 11.199219 -9.585938 L 7.140625 -9.585938 L 7.140625 -10.292969 L 7.828125 -10.125 L 6.691406 -5.476562 C 6.582031 -5.035156 6.496094 -4.660156 6.4375 -4.347656 C 6.378906 -4.054688 6.34375 -3.835938 6.335938 -3.6875 L 6.289062 -3.03125 L 4.910156 -3.03125 L 4.863281 -3.6875 C 4.855469 -3.835938 4.820312 -4.054688 4.761719 -4.347656 C 4.703125 -4.660156 4.617188 -5.035156 4.507812 -5.476562 L 3.355469 -10.121094 L 4.042969 -10.292969 L 4.042969 -9.585938 L 0 -9.585938 L 0 -10.292969 L 0.664062 -10.542969 L 4.554688 -0.25 L 3.890625 0 L 3.890625 -0.707031 L 7.289062 -0.707031 L 7.289062 0 L 6.628906 -0.25 Z M 10.539062 -10.542969 "/></g></g></g><g fill="#ffffff" fill-opacity="1"><g transform="translate(34.38544, 30.287244)"><g><path d="M 10.097656 0.269531 C 9.492188 0.484375 8.875 0.648438 8.25 0.753906 C 7.625 0.863281 6.976562 0.917969 6.308594 0.917969 C 4.414062 0.917969 2.898438 0.355469 1.761719 -0.761719 C 0.617188 -1.878906 0.046875 -3.390625 0.046875 -5.289062 C 0.046875 -7.054688 0.578125 -8.480469 1.636719 -9.570312 C 2.699219 -10.664062 4.121094 -11.207031 5.890625 -11.207031 C 7.480469 -11.207031 8.730469 -10.765625 9.636719 -9.882812 C 10.546875 -8.996094 11 -7.777344 11 -6.230469 C 11 -5.847656 10.972656 -5.460938 10.917969 -5.074219 C 10.863281 -4.6875 10.785156 -4.328125 10.6875 -4.003906 L 10.535156 -3.503906 L 4.324219 -3.503906 L 4.324219 -4.210938 L 5.019531 -4.355469 C 5.09375 -3.992188 5.234375 -3.742188 5.441406 -3.601562 C 5.695312 -3.4375 6.117188 -3.351562 6.703125 -3.351562 C 7.09375 -3.351562 7.488281 -3.386719 7.886719 -3.457031 C 8.296875 -3.527344 8.882812 -3.679688 9.644531 -3.921875 L 10.566406 -4.214844 L 10.566406 0.101562 Z M 9.621094 -1.0625 L 9.859375 -0.398438 L 9.148438 -0.398438 L 9.148438 -3.25 L 9.859375 -3.25 L 10.074219 -2.574219 C 9.25 -2.3125 8.601562 -2.140625 8.128906 -2.058594 C 7.648438 -1.976562 7.171875 -1.9375 6.703125 -1.9375 C 5.832031 -1.9375 5.152344 -2.097656 4.660156 -2.421875 C 4.128906 -2.773438 3.785156 -3.324219 3.632812 -4.070312 L 3.457031 -4.917969 L 10.007812 -4.917969 L 10.007812 -4.210938 L 9.332031 -4.417969 C 9.410156 -4.671875 9.472656 -4.957031 9.515625 -5.273438 C 9.5625 -5.59375 9.585938 -5.914062 9.585938 -6.230469 C 9.585938 -7.378906 9.273438 -8.257812 8.644531 -8.871094 C 8.015625 -9.484375 7.097656 -9.792969 5.890625 -9.792969 C 4.519531 -9.792969 3.4375 -9.386719 2.652344 -8.582031 C 1.859375 -7.769531 1.464844 -6.671875 1.464844 -5.289062 C 1.464844 -3.785156 1.894531 -2.613281 2.753906 -1.769531 C 3.617188 -0.925781 4.800781 -0.5 6.308594 -0.5 C 6.898438 -0.5 7.464844 -0.546875 8.011719 -0.640625 C 8.554688 -0.734375 9.09375 -0.875 9.621094 -1.0625 Z M 6.507812 -6.78125 C 6.507812 -7.023438 6.453125 -7.203125 6.34375 -7.308594 C 6.238281 -7.414062 6.0625 -7.46875 5.816406 -7.46875 C 5.542969 -7.46875 5.339844 -7.394531 5.210938 -7.242188 C 5.050781 -7.058594 4.964844 -6.746094 4.957031 -6.3125 L 4.25 -6.328125 L 4.25 -7.035156 L 7.175781 -7.035156 L 7.175781 -6.328125 L 6.542969 -6.644531 C 6.519531 -6.59375 6.503906 -6.554688 6.5 -6.527344 C 6.503906 -6.558594 6.507812 -6.640625 6.507812 -6.78125 Z M 7.921875 -6.78125 C 7.921875 -6.589844 7.917969 -6.453125 7.910156 -6.371094 C 7.894531 -6.230469 7.859375 -6.109375 7.808594 -6.011719 L 7.613281 -5.617188 L 3.527344 -5.617188 L 3.542969 -6.339844 C 3.558594 -7.117188 3.757812 -7.722656 4.136719 -8.167969 C 4.550781 -8.644531 5.109375 -8.886719 5.816406 -8.886719 C 6.453125 -8.886719 6.964844 -8.695312 7.347656 -8.308594 C 7.730469 -7.925781 7.921875 -7.417969 7.921875 -6.78125 Z M 7.921875 -6.78125 "/></g></g></g><g fill="#ffffff" fill-opacity="1"><g transform="translate(45.433386, 30.287244)"><g><path d="M 0.800781 -15.648438 L 5.996094 -15.648438 L 5.996094 0.707031 L 0.800781 0.707031 Z M 2.21875 -14.230469 L 2.21875 -0.707031 L 4.578125 -0.707031 L 4.578125 -14.230469 Z M 2.21875 -14.230469 "/></g></g></g><g clip-path="url(#6216e16299)"><g fill="#ffffff" fill-opacity="1"><g transform="translate(52.232122, 30.287244)"><g><path d="M 9.847656 -3.210938 C 9.847656 -1.964844 9.359375 -0.949219 8.382812 -0.171875 C 7.453125 0.566406 6.289062 0.933594 4.890625 0.933594 C 4.171875 0.933594 3.46875 0.878906 2.785156 0.765625 C 2.085938 0.648438 1.457031 0.484375 0.894531 0.261719 L 0.445312 0.0859375 L 0.445312 -4.617188 L 1.496094 -4.039062 C 1.925781 -3.800781 2.417969 -3.605469 2.96875 -3.449219 C 3.507812 -3.296875 4 -3.21875 4.4375 -3.21875 C 4.71875 -3.21875 4.894531 -3.238281 4.972656 -3.277344 C 4.941406 -3.261719 4.914062 -3.234375 4.890625 -3.195312 C 4.859375 -3.148438 4.84375 -3.101562 4.84375 -3.058594 C 4.84375 -3.003906 4.859375 -2.949219 4.890625 -2.902344 C 4.898438 -2.886719 4.910156 -2.871094 4.917969 -2.863281 L 4.917969 -2.859375 C 4.824219 -2.921875 4.539062 -3.019531 4.0625 -3.152344 C 3.367188 -3.351562 2.839844 -3.535156 2.480469 -3.699219 C 2.082031 -3.882812 1.742188 -4.109375 1.457031 -4.375 C 1.082031 -4.722656 0.796875 -5.136719 0.605469 -5.625 C 0.421875 -6.089844 0.332031 -6.613281 0.332031 -7.195312 C 0.332031 -8.503906 0.800781 -9.507812 1.738281 -10.207031 C 2.613281 -10.863281 3.847656 -11.191406 5.4375 -11.191406 C 6.027344 -11.191406 6.597656 -11.148438 7.15625 -11.070312 C 7.714844 -10.988281 8.28125 -10.863281 8.855469 -10.6875 L 9.359375 -10.535156 L 9.359375 -5.855469 L 8.296875 -6.46875 C 8.03125 -6.621094 7.636719 -6.757812 7.117188 -6.871094 C 6.574219 -6.992188 6.066406 -7.054688 5.589844 -7.054688 C 5.449219 -7.054688 5.335938 -7.046875 5.246094 -7.035156 C 5.214844 -7.027344 5.1875 -7.023438 5.167969 -7.019531 L 5.171875 -7.019531 C 5.226562 -7.050781 5.269531 -7.09375 5.300781 -7.152344 C 5.324219 -7.191406 5.335938 -7.226562 5.335938 -7.253906 C 5.335938 -7.320312 5.316406 -7.382812 5.28125 -7.4375 C 5.273438 -7.453125 5.261719 -7.46875 5.25 -7.480469 L 5.246094 -7.484375 C 5.332031 -7.425781 5.617188 -7.328125 6.097656 -7.199219 C 6.78125 -6.996094 7.304688 -6.8125 7.664062 -6.648438 C 8.054688 -6.46875 8.386719 -6.253906 8.667969 -6.007812 C 9.0625 -5.660156 9.359375 -5.246094 9.558594 -4.765625 C 9.753906 -4.300781 9.847656 -3.785156 9.847656 -3.210938 Z M 8.433594 -3.210938 C 8.433594 -3.59375 8.371094 -3.933594 8.25 -4.222656 C 8.136719 -4.5 7.960938 -4.742188 7.726562 -4.949219 C 7.550781 -5.101562 7.332031 -5.242188 7.070312 -5.363281 C 6.773438 -5.5 6.324219 -5.65625 5.726562 -5.832031 C 5.097656 -6.003906 4.675781 -6.160156 4.460938 -6.304688 C 4.300781 -6.410156 4.175781 -6.535156 4.085938 -6.679688 C 3.972656 -6.855469 3.917969 -7.046875 3.917969 -7.253906 C 3.917969 -7.46875 3.964844 -7.660156 4.058594 -7.832031 C 4.164062 -8.023438 4.316406 -8.171875 4.515625 -8.277344 C 4.765625 -8.40625 5.121094 -8.46875 5.589844 -8.46875 C 6.171875 -8.46875 6.78125 -8.398438 7.425781 -8.253906 C 8.085938 -8.105469 8.613281 -7.921875 9.003906 -7.695312 L 8.648438 -7.082031 L 7.941406 -7.082031 L 7.941406 -10.007812 L 8.648438 -10.007812 L 8.445312 -9.332031 C 7.9375 -9.484375 7.441406 -9.597656 6.953125 -9.667969 C 6.464844 -9.738281 5.960938 -9.773438 5.4375 -9.773438 C 4.160156 -9.773438 3.210938 -9.539062 2.585938 -9.074219 C 2.027344 -8.65625 1.746094 -8.03125 1.746094 -7.195312 C 1.746094 -6.792969 1.804688 -6.441406 1.925781 -6.140625 C 2.035156 -5.859375 2.203125 -5.613281 2.429688 -5.40625 C 2.601562 -5.246094 2.816406 -5.105469 3.074219 -4.988281 C 3.367188 -4.851562 3.820312 -4.695312 4.4375 -4.515625 C 5.066406 -4.34375 5.492188 -4.183594 5.714844 -4.03125 C 5.878906 -3.921875 6.003906 -3.789062 6.097656 -3.636719 C 6.207031 -3.460938 6.261719 -3.269531 6.261719 -3.058594 C 6.261719 -2.828125 6.203125 -2.617188 6.082031 -2.433594 C 5.96875 -2.253906 5.808594 -2.113281 5.605469 -2.011719 C 5.328125 -1.871094 4.941406 -1.804688 4.4375 -1.804688 C 3.871094 -1.804688 3.25 -1.898438 2.585938 -2.085938 C 1.925781 -2.269531 1.335938 -2.507812 0.808594 -2.796875 L 1.152344 -3.417969 L 1.859375 -3.417969 L 1.859375 -0.398438 L 1.152344 -0.398438 L 1.410156 -1.054688 C 1.878906 -0.871094 2.414062 -0.730469 3.015625 -0.632812 C 3.625 -0.53125 4.25 -0.480469 4.890625 -0.480469 C 5.960938 -0.480469 6.832031 -0.75 7.5 -1.28125 C 8.121094 -1.777344 8.433594 -2.417969 8.433594 -3.210938 Z M 8.433594 -3.210938 "/></g></g></g></g><g fill="#234777" fill-opacity="1"><g transform="translate(0.542844, 15.767666)"><g><path d="M 5.4375 -5.578125 L 5.4375 0 L 1.515625 0 L 1.515625 -14.40625 L 5.296875 -14.40625 L 8.671875 -8.921875 C 8.921875 -8.523438 9.148438 -8.128906 9.359375 -7.734375 C 9.566406 -7.347656 9.753906 -6.96875 9.921875 -6.59375 L 10 -6.609375 C 9.96875 -7.003906 9.941406 -7.390625 9.921875 -7.765625 C 9.910156 -8.140625 9.90625 -8.515625 9.90625 -8.890625 L 9.90625 -14.40625 L 13.828125 -14.40625 L 13.828125 0 L 10.046875 0 L 6.671875 -5.546875 C 6.429688 -5.953125 6.203125 -6.347656 5.984375 -6.734375 C 5.773438 -7.128906 5.582031 -7.507812 5.40625 -7.875 L 5.328125 -7.859375 C 5.367188 -7.484375 5.394531 -7.101562 5.40625 -6.71875 C 5.425781 -6.332031 5.4375 -5.953125 5.4375 -5.578125 Z M 5.4375 -5.578125 "/></g></g></g><g fill="#234777" fill-opacity="1"><g transform="translate(15.877773, 15.767666)"><g><path d="M 11.3125 -5.140625 C 11.3125 -3.484375 10.835938 -2.179688 9.890625 -1.234375 C 8.953125 -0.285156 7.664062 0.1875 6.03125 0.1875 C 4.394531 0.1875 3.101562 -0.285156 2.15625 -1.234375 C 1.21875 -2.179688 0.75 -3.484375 0.75 -5.140625 C 0.75 -6.785156 1.21875 -8.085938 2.15625 -9.046875 C 3.101562 -10.003906 4.394531 -10.484375 6.03125 -10.484375 C 7.664062 -10.484375 8.953125 -10.003906 9.890625 -9.046875 C 10.835938 -8.085938 11.3125 -6.785156 11.3125 -5.140625 Z M 7.515625 -5.140625 C 7.515625 -5.972656 7.390625 -6.59375 7.140625 -7 C 6.898438 -7.40625 6.53125 -7.609375 6.03125 -7.609375 C 5.539062 -7.609375 5.171875 -7.40625 4.921875 -7 C 4.671875 -6.59375 4.546875 -5.972656 4.546875 -5.140625 C 4.546875 -4.304688 4.671875 -3.6875 4.921875 -3.28125 C 5.171875 -2.882812 5.539062 -2.6875 6.03125 -2.6875 C 6.53125 -2.6875 6.898438 -2.882812 7.140625 -3.28125 C 7.390625 -3.6875 7.515625 -4.304688 7.515625 -5.140625 Z M 7.515625 -5.140625 "/></g></g></g><g fill="#234777" fill-opacity="1"><g transform="translate(27.945531, 15.767666)"><g><path d="M 11.203125 -10.296875 L 7.296875 0 L 3.890625 0 L 0 -10.296875 L 4.046875 -10.296875 L 5.1875 -5.640625 C 5.300781 -5.191406 5.390625 -4.804688 5.453125 -4.484375 C 5.515625 -4.160156 5.554688 -3.910156 5.578125 -3.734375 L 5.625 -3.734375 C 5.632812 -3.910156 5.671875 -4.160156 5.734375 -4.484375 C 5.804688 -4.804688 5.894531 -5.191406 6 -5.640625 L 7.140625 -10.296875 Z M 11.203125 -10.296875 "/></g></g></g><g fill="#234777" fill-opacity="1"><g transform="translate(39.144559, 15.767666)"><g><path d="M 6.84375 -1 C 6.382812 -0.550781 5.941406 -0.238281 5.515625 -0.0625 C 5.097656 0.113281 4.613281 0.203125 4.0625 0.203125 C 3.09375 0.203125 2.328125 -0.0859375 1.765625 -0.671875 C 1.210938 -1.253906 0.9375 -2.035156 0.9375 -3.015625 C 0.9375 -4.097656 1.335938 -4.90625 2.140625 -5.4375 C 2.941406 -5.96875 4.160156 -6.234375 5.796875 -6.234375 L 6.453125 -6.234375 C 6.472656 -6.273438 6.484375 -6.316406 6.484375 -6.359375 C 6.484375 -6.398438 6.484375 -6.5 6.484375 -6.65625 C 6.484375 -6.988281 6.335938 -7.234375 6.046875 -7.390625 C 5.765625 -7.546875 5.328125 -7.625 4.734375 -7.625 C 4.242188 -7.625 3.785156 -7.582031 3.359375 -7.5 C 2.929688 -7.425781 2.425781 -7.28125 1.84375 -7.0625 L 1.84375 -10.03125 C 2.363281 -10.175781 2.910156 -10.285156 3.484375 -10.359375 C 4.066406 -10.441406 4.679688 -10.484375 5.328125 -10.484375 C 7.085938 -10.484375 8.34375 -10.101562 9.09375 -9.34375 C 9.84375 -8.59375 10.21875 -7.359375 10.21875 -5.640625 L 10.21875 0 L 7.296875 0 L 6.90625 -0.984375 Z M 6.046875 -4.3125 C 5.523438 -4.3125 5.148438 -4.226562 4.921875 -4.0625 C 4.691406 -3.894531 4.578125 -3.613281 4.578125 -3.21875 C 4.578125 -2.914062 4.648438 -2.679688 4.796875 -2.515625 C 4.953125 -2.347656 5.160156 -2.265625 5.421875 -2.265625 C 5.703125 -2.265625 5.976562 -2.328125 6.25 -2.453125 C 6.519531 -2.585938 6.703125 -2.742188 6.796875 -2.921875 L 6.796875 -4.3125 Z M 6.046875 -4.3125 "/></g></g></g><g fill="#234777" fill-opacity="1"><g transform="translate(0.542844, 30.287244)"><g><path d="M 11.03125 -3.28125 L 11.03125 0 L 1.515625 0 L 1.515625 -14.40625 L 5.625 -14.40625 L 5.625 -3.28125 Z M 11.03125 -3.28125 "/></g></g></g><g fill="#234777" fill-opacity="1"><g transform="translate(12.138465, 30.287244)"><g><path d="M 9.859375 -0.390625 C 9.296875 -0.191406 8.71875 -0.046875 8.125 0.046875 C 7.539062 0.148438 6.9375 0.203125 6.3125 0.203125 C 4.613281 0.203125 3.257812 -0.285156 2.25 -1.265625 C 1.25 -2.242188 0.75 -3.585938 0.75 -5.296875 C 0.75 -6.867188 1.210938 -8.128906 2.140625 -9.078125 C 3.066406 -10.023438 4.316406 -10.5 5.890625 -10.5 C 7.285156 -10.5 8.367188 -10.125 9.140625 -9.375 C 9.910156 -8.625 10.296875 -7.578125 10.296875 -6.234375 C 10.296875 -5.878906 10.269531 -5.523438 10.21875 -5.171875 C 10.164062 -4.816406 10.097656 -4.5 10.015625 -4.21875 L 4.328125 -4.21875 C 4.441406 -3.65625 4.679688 -3.25 5.046875 -3 C 5.421875 -2.757812 5.972656 -2.640625 6.703125 -2.640625 C 7.128906 -2.640625 7.5625 -2.675781 8 -2.75 C 8.445312 -2.832031 9.066406 -3 9.859375 -3.25 Z M 7.21875 -6.78125 C 7.21875 -7.21875 7.09375 -7.554688 6.84375 -7.796875 C 6.601562 -8.046875 6.257812 -8.171875 5.8125 -8.171875 C 5.320312 -8.171875 4.941406 -8.015625 4.671875 -7.703125 C 4.398438 -7.390625 4.257812 -6.929688 4.25 -6.328125 L 7.171875 -6.328125 C 7.191406 -6.347656 7.203125 -6.382812 7.203125 -6.4375 C 7.210938 -6.5 7.21875 -6.613281 7.21875 -6.78125 Z M 7.21875 -6.78125 "/></g></g></g><g fill="#234777" fill-opacity="1"><g transform="translate(23.186411, 30.287244)"><g><path d="M 11.203125 -10.296875 L 7.296875 0 L 3.890625 0 L 0 -10.296875 L 4.046875 -10.296875 L 5.1875 -5.640625 C 5.300781 -5.191406 5.390625 -4.804688 5.453125 -4.484375 C 5.515625 -4.160156 5.554688 -3.910156 5.578125 -3.734375 L 5.625 -3.734375 C 5.632812 -3.910156 5.671875 -4.160156 5.734375 -4.484375 C 5.804688 -4.804688 5.894531 -5.191406 6 -5.640625 L 7.140625 -10.296875 Z M 11.203125 -10.296875 "/></g></g></g><g fill="#234777" fill-opacity="1"><g transform="translate(34.38544, 30.287244)"><g><path d="M 9.859375 -0.390625 C 9.296875 -0.191406 8.71875 -0.046875 8.125 0.046875 C 7.539062 0.148438 6.9375 0.203125 6.3125 0.203125 C 4.613281 0.203125 3.257812 -0.285156 2.25 -1.265625 C 1.25 -2.242188 0.75 -3.585938 0.75 -5.296875 C 0.75 -6.867188 1.210938 -8.128906 2.140625 -9.078125 C 3.066406 -10.023438 4.316406 -10.5 5.890625 -10.5 C 7.285156 -10.5 8.367188 -10.125 9.140625 -9.375 C 9.910156 -8.625 10.296875 -7.578125 10.296875 -6.234375 C 10.296875 -5.878906 10.269531 -5.523438 10.21875 -5.171875 C 10.164062 -4.816406 10.097656 -4.5 10.015625 -4.21875 L 4.328125 -4.21875 C 4.441406 -3.65625 4.679688 -3.25 5.046875 -3 C 5.421875 -2.757812 5.972656 -2.640625 6.703125 -2.640625 C 7.128906 -2.640625 7.5625 -2.675781 8 -2.75 C 8.445312 -2.832031 9.066406 -3 9.859375 -3.25 Z M 7.21875 -6.78125 C 7.21875 -7.21875 7.09375 -7.554688 6.84375 -7.796875 C 6.601562 -8.046875 6.257812 -8.171875 5.8125 -8.171875 C 5.320312 -8.171875 4.941406 -8.015625 4.671875 -7.703125 C 4.398438 -7.390625 4.257812 -6.929688 4.25 -6.328125 L 7.171875 -6.328125 C 7.191406 -6.347656 7.203125 -6.382812 7.203125 -6.4375 C 7.210938 -6.5 7.21875 -6.613281 7.21875 -6.78125 Z M 7.21875 -6.78125 "/></g></g></g><g fill="#234777" fill-opacity="1"><g transform="translate(45.433386, 30.287244)"><g><path d="M 5.296875 -14.9375 L 5.296875 0 L 1.515625 0 L 1.515625 -14.9375 Z M 5.296875 -14.9375 "/></g></g></g><g fill="#234777" fill-opacity="1"><g transform="translate(52.232122, 30.287244)"><g><path d="M 9.140625 -3.21875 C 9.140625 -2.195312 8.738281 -1.363281 7.9375 -0.71875 C 7.144531 -0.0820312 6.128906 0.234375 4.890625 0.234375 C 4.210938 0.234375 3.546875 0.175781 2.890625 0.0625 C 2.242188 -0.0390625 1.664062 -0.191406 1.15625 -0.390625 L 1.15625 -3.421875 C 1.632812 -3.148438 2.175781 -2.929688 2.78125 -2.765625 C 3.382812 -2.597656 3.9375 -2.515625 4.4375 -2.515625 C 4.832031 -2.515625 5.113281 -2.554688 5.28125 -2.640625 C 5.457031 -2.734375 5.546875 -2.875 5.546875 -3.0625 C 5.546875 -3.207031 5.46875 -3.332031 5.3125 -3.4375 C 5.15625 -3.550781 4.800781 -3.679688 4.25 -3.828125 C 3.59375 -4.023438 3.097656 -4.195312 2.765625 -4.34375 C 2.441406 -4.5 2.171875 -4.679688 1.953125 -4.890625 C 1.648438 -5.171875 1.421875 -5.5 1.265625 -5.875 C 1.109375 -6.257812 1.03125 -6.703125 1.03125 -7.203125 C 1.03125 -8.265625 1.40625 -9.078125 2.15625 -9.640625 C 2.90625 -10.203125 4 -10.484375 5.4375 -10.484375 C 5.988281 -10.484375 6.523438 -10.441406 7.046875 -10.359375 C 7.578125 -10.285156 8.113281 -10.171875 8.65625 -10.015625 L 8.65625 -7.078125 C 8.320312 -7.273438 7.859375 -7.4375 7.265625 -7.5625 C 6.679688 -7.695312 6.125 -7.765625 5.59375 -7.765625 C 5.238281 -7.765625 4.988281 -7.722656 4.84375 -7.640625 C 4.695312 -7.566406 4.625 -7.4375 4.625 -7.25 C 4.625 -7.113281 4.695312 -6.992188 4.84375 -6.890625 C 5 -6.796875 5.351562 -6.671875 5.90625 -6.515625 C 6.550781 -6.328125 7.035156 -6.15625 7.359375 -6 C 7.691406 -5.851562 7.972656 -5.679688 8.203125 -5.484375 C 8.515625 -5.203125 8.75 -4.867188 8.90625 -4.484375 C 9.0625 -4.109375 9.140625 -3.6875 9.140625 -3.21875 Z M 9.140625 -3.21875 "/></g></g></g></g></g><g clip-path="url(#d680abda47)"><g clip-path="url(#33906a692c)"><g transform="matrix(1, 0, 0, 1, 39, 59)"><g clip-path="url(#fc2ad28ee6)"><g clip-path="url(#43189a25b8)"><g clip-path="url(#57d29eaccf)"><path fill="#c8b663" d="M 0.078125 0.875 L 37.992188 0.875 L 37.992188 5.882812 L 0.078125 5.882812 Z M 0.078125 0.875 " fill-opacity="1" fill-rule="nonzero"/></g></g></g></g></g></g><g transform="matrix(1, 0, 0, 1, 39, 58)"><g clip-path="url(#9d14504918)"><g fill="#234777" fill-opacity="1"><g transform="translate(1.365939, 6.326128)"><g><path d="M 2.953125 -0.671875 L 1.484375 -0.671875 L 1.21875 0 L -0.109375 0 L 1.578125 -3.859375 L 2.859375 -3.859375 L 4.546875 0 L 3.203125 0 Z M 2.59375 -1.609375 L 2.21875 -2.578125 L 1.84375 -1.609375 Z M 2.59375 -1.609375 "/></g></g></g><g fill="#234777" fill-opacity="1"><g transform="translate(6.590419, 6.326128)"><g><path d="M 2.3125 0.09375 C 1.90625 0.09375 1.535156 0.0078125 1.203125 -0.15625 C 0.878906 -0.332031 0.625 -0.570312 0.4375 -0.875 C 0.25 -1.1875 0.15625 -1.539062 0.15625 -1.9375 C 0.15625 -2.320312 0.25 -2.664062 0.4375 -2.96875 C 0.625 -3.28125 0.878906 -3.519531 1.203125 -3.6875 C 1.535156 -3.863281 1.90625 -3.953125 2.3125 -3.953125 C 2.6875 -3.953125 3.019531 -3.882812 3.3125 -3.75 C 3.601562 -3.613281 3.847656 -3.421875 4.046875 -3.171875 L 3.21875 -2.4375 C 2.976562 -2.738281 2.695312 -2.890625 2.375 -2.890625 C 2.101562 -2.890625 1.882812 -2.800781 1.71875 -2.625 C 1.550781 -2.457031 1.46875 -2.226562 1.46875 -1.9375 C 1.46875 -1.632812 1.550781 -1.394531 1.71875 -1.21875 C 1.882812 -1.050781 2.101562 -0.96875 2.375 -0.96875 C 2.695312 -0.96875 2.976562 -1.117188 3.21875 -1.421875 L 4.046875 -0.6875 C 3.847656 -0.4375 3.601562 -0.242188 3.3125 -0.109375 C 3.019531 0.0234375 2.6875 0.09375 2.3125 0.09375 Z M 2.3125 0.09375 "/></g></g></g><g fill="#234777" fill-opacity="1"><g transform="translate(11.472861, 6.326128)"><g><path d="M 2.953125 -0.671875 L 1.484375 -0.671875 L 1.21875 0 L -0.109375 0 L 1.578125 -3.859375 L 2.859375 -3.859375 L 4.546875 0 L 3.203125 0 Z M 2.59375 -1.609375 L 2.21875 -2.578125 L 1.84375 -1.609375 Z M 2.59375 -1.609375 "/></g></g></g><g fill="#234777" fill-opacity="1"><g transform="translate(16.752512, 6.326128)"><g><path d="M 0.3125 -3.859375 L 2.21875 -3.859375 C 2.644531 -3.859375 3.019531 -3.78125 3.34375 -3.625 C 3.675781 -3.46875 3.929688 -3.242188 4.109375 -2.953125 C 4.296875 -2.660156 4.390625 -2.320312 4.390625 -1.9375 C 4.390625 -1.539062 4.296875 -1.195312 4.109375 -0.90625 C 3.929688 -0.613281 3.675781 -0.390625 3.34375 -0.234375 C 3.019531 -0.078125 2.644531 0 2.21875 0 L 0.3125 0 Z M 2.15625 -1.015625 C 2.4375 -1.015625 2.660156 -1.09375 2.828125 -1.25 C 2.992188 -1.414062 3.078125 -1.644531 3.078125 -1.9375 C 3.078125 -2.21875 2.992188 -2.4375 2.828125 -2.59375 C 2.660156 -2.757812 2.4375 -2.84375 2.15625 -2.84375 L 1.609375 -2.84375 L 1.609375 -1.015625 Z M 2.15625 -1.015625 "/></g></g></g><g fill="#234777" fill-opacity="1"><g transform="translate(22.142495, 6.326128)"><g><path d="M 3.53125 -0.984375 L 3.53125 0 L 0.3125 0 L 0.3125 -3.859375 L 3.453125 -3.859375 L 3.453125 -2.875 L 1.59375 -2.875 L 1.59375 -2.421875 L 3.234375 -2.421875 L 3.234375 -1.484375 L 1.59375 -1.484375 L 1.59375 -0.984375 Z M 3.53125 -0.984375 "/></g></g></g><g fill="#234777" fill-opacity="1"><g transform="translate(26.688417, 6.326128)"><g><path d="M 3.765625 0 L 3.75 -1.765625 L 2.90625 -0.34375 L 2.34375 -0.34375 L 1.5 -1.703125 L 1.5 0 L 0.3125 0 L 0.3125 -3.859375 L 1.390625 -3.859375 L 2.640625 -1.796875 L 3.859375 -3.859375 L 4.9375 -3.859375 L 4.953125 0 Z M 3.765625 0 "/></g></g></g><g fill="#234777" fill-opacity="1"><g transform="translate(32.784544, 6.326128)"><g><path d="M 2.609375 -1.40625 L 2.609375 0 L 1.3125 0 L 1.3125 -1.421875 L -0.15625 -3.859375 L 1.21875 -3.859375 L 2.015625 -2.53125 L 2.8125 -3.859375 L 4.0625 -3.859375 Z M 2.609375 -1.40625 "/></g></g></g></g></g></svg>